<svg width="512" height="512" viewBox="0 0 512 512" fill="none" xmlns="http://www.w3.org/2000/svg">
<rect width="512" height="512" fill="white"/>
<path d="M233.835 213.4V313.15C218.202 318.283 203.385 322.017 189.385 324.35C175.385 326.683 163.602 327.85 154.035 327.85C122.302 327.85 97.4518 319.567 79.4852 303C61.5185 286.433 52.5352 261 52.5352 226.7C52.5352 191.7 61.9852 165.567 80.8852 148.3C99.7852 130.8 126.385 122.05 160.685 122.05C178.652 122.05 200.235 124.733 225.435 130.1C225.435 134.767 224.969 141.767 224.035 151.1C223.102 160.2 222.168 166.617 221.235 170.35L208.635 170C193.235 169.533 181.218 169.3 172.585 169.3C146.685 169.3 132.568 170.817 130.235 173.85C126.502 178.283 123.818 185.167 122.185 194.5C120.785 203.833 120.085 212.817 120.085 221.45C120.085 237.083 121.835 249.217 125.335 257.85C128.835 266.483 134.202 272.55 141.435 276.05C148.668 279.55 158.468 281.3 170.835 281.3H172.235V213.4H233.835ZM322.038 243.5V324H263.588V124.5H322.738L375.588 205C383.521 216.9 389.588 226.933 393.788 235.1H394.838V201.5V124.5H452.938V324H393.438L339.188 240L323.438 216.2H322.388L322.038 243.5Z" fill="#358B48"/>
<path d="M104.27 360.024C104.27 360.528 104.522 360.924 105.026 361.212C105.554 361.5 106.37 361.812 107.474 362.148C108.794 362.58 109.874 363 110.714 363.408C111.578 363.816 112.322 364.452 112.946 365.316C113.594 366.18 113.918 367.308 113.918 368.7C113.918 373.164 111.014 375.396 105.206 375.396C104.246 375.396 103.07 375.312 101.678 375.144C100.31 374.976 99.0624 374.76 97.9344 374.496C97.9824 373.992 98.0784 373.26 98.2224 372.3C98.3904 371.316 98.5464 370.584 98.6904 370.104C99.5304 370.224 100.79 370.368 102.47 370.536C104.174 370.704 105.458 370.788 106.322 370.788C106.826 370.788 107.126 370.752 107.222 370.68C107.366 370.584 107.474 370.428 107.546 370.212C107.642 369.972 107.69 369.768 107.69 369.6C107.69 369.12 107.462 368.76 107.006 368.52C106.55 368.256 105.77 367.944 104.666 367.584C103.346 367.176 102.254 366.756 101.39 366.324C100.526 365.892 99.7704 365.22 99.1224 364.308C98.4744 363.396 98.1504 362.196 98.1504 360.708C98.1504 359.652 98.3904 358.62 98.8704 357.612C99.3504 356.58 99.8424 355.884 100.346 355.524C100.73 355.26 101.522 355.008 102.722 354.768C103.922 354.528 105.05 354.408 106.106 354.408C108.794 354.408 110.99 354.66 112.694 355.164C112.67 355.644 112.586 356.304 112.442 357.144C112.322 357.984 112.19 358.752 112.046 359.448L111.218 359.412C108.098 359.196 106.106 359.088 105.242 359.088C104.882 359.088 104.678 359.1 104.63 359.124C104.534 359.172 104.45 359.28 104.378 359.448C104.306 359.616 104.27 359.808 104.27 360.024ZM144.902 375.468C141.326 375.468 138.638 374.628 136.838 372.948C135.062 371.244 134.174 368.52 134.174 364.776C134.174 361.104 135.158 358.428 137.126 356.748C139.094 355.068 141.698 354.228 144.938 354.228C151.754 354.228 155.162 357.624 155.162 364.416C155.162 367.848 154.322 370.548 152.642 372.516C150.986 374.484 148.406 375.468 144.902 375.468ZM144.758 371.22C145.43 371.22 145.994 371.112 146.45 370.896C146.906 370.656 147.266 370.248 147.53 369.672C148.034 368.688 148.286 367.08 148.286 364.848C148.286 362.664 148.034 361.08 147.53 360.096C147.026 359.088 146.102 358.56 144.758 358.512C144.254 358.512 143.726 358.572 143.174 358.692C142.646 358.788 142.31 358.932 142.166 359.124C141.878 359.46 141.65 360.18 141.482 361.284C141.338 362.364 141.266 363.552 141.266 364.848C141.266 366.864 141.458 368.34 141.842 369.276C142.106 369.972 142.478 370.476 142.958 370.788C143.438 371.076 144.038 371.22 144.758 371.22ZM175.955 354.48H182.435V370.248H190.823V375H175.955V354.48ZM230.336 354.48V365.964C230.336 368.34 230.072 370.2 229.544 371.544C229.04 372.864 228.08 373.836 226.664 374.46C225.248 375.084 223.184 375.396 220.472 375.396C218.48 375.396 216.8 375.192 215.432 374.784C214.064 374.352 212.972 373.548 212.156 372.372C211.364 371.196 210.968 369.54 210.968 367.404V354.48H217.448V366.036C217.448 367.308 217.508 368.28 217.628 368.952C217.772 369.6 218.084 370.104 218.564 370.464C219.044 370.8 219.776 370.968 220.76 370.968C221.36 370.968 221.924 370.908 222.452 370.788C222.98 370.668 223.34 370.488 223.532 370.248C223.748 369.96 223.856 368.916 223.856 367.116V354.48H230.336ZM262.517 375H256.037V358.98H250.241V354.48H268.313V358.98H262.517V375ZM288.422 354.48H294.902V375H288.422V354.48ZM326.554 375.468C322.978 375.468 320.29 374.628 318.49 372.948C316.714 371.244 315.826 368.52 315.826 364.776C315.826 361.104 316.81 358.428 318.778 356.748C320.746 355.068 323.35 354.228 326.59 354.228C333.406 354.228 336.814 357.624 336.814 364.416C336.814 367.848 335.974 370.548 334.294 372.516C332.638 374.484 330.058 375.468 326.554 375.468ZM326.41 371.22C327.082 371.22 327.646 371.112 328.102 370.896C328.558 370.656 328.918 370.248 329.182 369.672C329.686 368.688 329.938 367.08 329.938 364.848C329.938 362.664 329.686 361.08 329.182 360.096C328.678 359.088 327.754 358.56 326.41 358.512C325.906 358.512 325.378 358.572 324.826 358.692C324.298 358.788 323.962 358.932 323.818 359.124C323.53 359.46 323.302 360.18 323.134 361.284C322.99 362.364 322.918 363.552 322.918 364.848C322.918 366.864 323.11 368.34 323.494 369.276C323.758 369.972 324.13 370.476 324.61 370.788C325.09 371.076 325.69 371.22 326.41 371.22ZM363.691 366.72V375H357.679V354.48H363.763L369.199 362.76C370.015 363.984 370.639 365.016 371.071 365.856H371.179V362.4V354.48H377.155V375H371.035L365.455 366.36L363.835 363.912H363.727L363.691 366.72ZM404.61 360.024C404.61 360.528 404.862 360.924 405.366 361.212C405.894 361.5 406.71 361.812 407.814 362.148C409.134 362.58 410.214 363 411.054 363.408C411.918 363.816 412.662 364.452 413.286 365.316C413.934 366.18 414.258 367.308 414.258 368.7C414.258 373.164 411.354 375.396 405.546 375.396C404.586 375.396 403.41 375.312 402.018 375.144C400.65 374.976 399.402 374.76 398.274 374.496C398.322 373.992 398.418 373.26 398.562 372.3C398.73 371.316 398.886 370.584 399.03 370.104C399.87 370.224 401.13 370.368 402.81 370.536C404.514 370.704 405.798 370.788 406.662 370.788C407.166 370.788 407.466 370.752 407.562 370.68C407.706 370.584 407.814 370.428 407.886 370.212C407.982 369.972 408.03 369.768 408.03 369.6C408.03 369.12 407.802 368.76 407.346 368.52C406.89 368.256 406.11 367.944 405.006 367.584C403.686 367.176 402.594 366.756 401.73 366.324C400.866 365.892 400.11 365.22 399.462 364.308C398.814 363.396 398.49 362.196 398.49 360.708C398.49 359.652 398.73 358.62 399.21 357.612C399.69 356.58 400.182 355.884 400.686 355.524C401.07 355.26 401.862 355.008 403.062 354.768C404.262 354.528 405.39 354.408 406.446 354.408C409.134 354.408 411.33 354.66 413.034 355.164C413.01 355.644 412.926 356.304 412.782 357.144C412.662 357.984 412.53 358.752 412.386 359.448L411.558 359.412C408.438 359.196 406.446 359.088 405.582 359.088C405.222 359.088 405.018 359.1 404.97 359.124C404.874 359.172 404.79 359.28 404.718 359.448C404.646 359.616 404.61 359.808 404.61 360.024Z" fill="#358B48" fill-opacity="0.7"/>
</svg>
